<svg width="21" height="21" viewBox="0 0 21 21" fill="none" xmlns="http://www.w3.org/2000/svg">
<path d="M17.094 2.952C15.4533 1.3005 13.2877 0.273208 10.9707 0.0472367C8.65365 -0.178734 6.33039 0.410773 4.40143 1.71413C2.47247 3.01748 1.05868 4.953 0.403808 7.18701C-0.251063 9.42101 -0.105981 11.8135 0.814044 13.952C0.909934 14.1508 0.941397 14.3745 0.904044 14.592L0.024044 18.822C-0.00985986 18.9842 -0.00293664 19.1522 0.0441915 19.3111C0.0913197 19.4699 0.177176 19.6146 0.294044 19.732C0.389848 19.8271 0.503918 19.9018 0.629378 19.9517C0.754838 20.0015 0.88909 20.0254 1.02404 20.022H1.22404L5.50404 19.162C5.72157 19.1358 5.94216 19.1669 6.14404 19.252C8.28254 20.172 10.675 20.3171 12.909 19.6622C15.143 19.0074 17.0786 17.5936 18.3819 15.6646C19.6853 13.7356 20.2748 11.4124 20.0488 9.09537C19.8228 6.77836 18.7955 4.61278 17.144 2.972L17.094 2.952Z" fill="#246DFF"/>
</svg>
