<svg width="14" height="14" viewBox="0 0 14 14" fill="none" xmlns="http://www.w3.org/2000/svg">
<path fill-rule="evenodd" clip-rule="evenodd" d="M9.30185 5.31535C9.30185 7.51703 7.51703 9.30185 5.31535 9.30185C3.11366 9.30185 1.32884 7.51703 1.32884 5.31535C1.32884 3.11366 3.11366 1.32884 5.31535 1.32884C7.51703 1.32884 9.30185 3.11366 9.30185 5.31535ZM8.35059 9.67942C7.49003 10.2791 6.44375 10.6307 5.31535 10.6307C2.37976 10.6307 0 8.25093 0 5.31535C0 2.37976 2.37976 0 5.31535 0C8.25093 0 10.6307 2.37976 10.6307 5.31535C10.6307 6.64305 10.1439 7.85706 9.33904 8.78862L13.6108 13.0604L12.6712 14L8.35059 9.67942Z" fill="#797979"/>
</svg>
