<svg width="24" height="24" viewBox="0 0 24 24" fill="none" xmlns="http://www.w3.org/2000/svg">
<circle cx="12" cy="12" r="11" stroke="black" stroke-width="2"/>
<circle cx="12" cy="10" r="4" stroke="black" stroke-width="2"/>
<mask id="path-3-inside-1_305_2" fill="white">
<path fill-rule="evenodd" clip-rule="evenodd" d="M4.45559 21.3323C5.55412 18.2257 8.51715 16 12 16C15.4829 16 18.4459 18.2257 19.5444 21.3323C17.4833 23.0006 14.8583 24 12 24C9.14168 24 6.51676 23.0006 4.45559 21.3323Z"/>
</mask>
<path d="M4.45559 21.3323L2.57001 20.6655L2.09891 21.9978L3.19729 22.8868L4.45559 21.3323ZM19.5444 21.3323L20.8027 22.8868L21.9011 21.9978L21.43 20.6655L19.5444 21.3323ZM4.45559 21.3323L6.34118 21.999C7.16603 19.6664 9.39099 18 12 18V16V14C7.64331 14 3.94221 16.7849 2.57001 20.6655L4.45559 21.3323ZM12 16V18C14.609 18 16.834 19.6664 17.6588 21.999L19.5444 21.3323L21.43 20.6655C20.0578 16.7849 16.3567 14 12 14V16ZM19.5444 21.3323L18.2861 19.7777C16.568 21.1684 14.3838 22 12 22V24V26C15.3328 26 18.3985 24.8329 20.8027 22.8868L19.5444 21.3323ZM12 24V22C9.61618 22 7.432 21.1684 5.7139 19.7777L4.45559 21.3323L3.19729 22.8868C5.60152 24.8329 8.66718 26 12 26V24Z" fill="black" mask="url(#path-3-inside-1_305_2)"/>
</svg>
